<?xml version="1.0" standalone="no"?>
<!DOCTYPE svg PUBLIC "-//W3C//DTD SVG 20010904//EN"
 "http://www.w3.org/TR/2001/REC-SVG-20010904/DTD/svg10.dtd">
<svg version="1.0" xmlns="http://www.w3.org/2000/svg"
 width="24.000000pt" height="24.000000pt" viewBox="0 0 24.000000 24.000000"
 preserveAspectRatio="xMidYMid meet">

<g transform="translate(0.000000,24.000000) scale(0.100000,-0.100000)"
fill="#000000" stroke="none">
<path d="M0 120 l0 -120 120 0 120 0 0 33 c0 17 -7 40 -14 49 -12 16 -15 15
-41 -12 -28 -29 -28 -30 -7 -30 12 0 22 5 22 12 0 8 6 6 17 -5 14 -14 15 -19
4 -29 -11 -10 -14 -10 -18 0 -3 8 -31 12 -89 12 l-84 0 0 84 c0 58 -4 86 -13
89 -9 4 -9 7 1 18 10 11 15 10 29 -4 11 -11 13 -17 5 -17 -7 0 -12 -10 -12
-22 0 -21 1 -21 30 7 27 26 28 29 12 41 -9 7 -32 14 -49 14 l-33 0 0 -120z"/>
<path d="M225 230 c3 -5 8 -10 11 -10 2 0 4 5 4 10 0 6 -5 10 -11 10 -5 0 -7
-4 -4 -10z"/>
<path d="M81 176 c-24 -24 -42 -49 -40 -55 2 -6 29 13 59 44 31 32 48 55 39
55 -8 0 -34 -20 -58 -44z"/>
<path d="M107 152 c-70 -71 -83 -103 -43 -110 26 -5 158 126 154 153 -6 41
-41 28 -111 -43z m103 55 c0 -1 -37 -38 -82 -82 l-83 -80 80 83 c74 76 85 87
85 79z"/>
<path d="M160 95 c-31 -32 -48 -55 -39 -55 19 0 102 85 98 99 -2 6 -29 -13
-59 -44z"/>
</g>
</svg>
