<?xml version="1.0" standalone="no"?>
<!DOCTYPE svg PUBLIC "-//W3C//DTD SVG 20010904//EN"
 "http://www.w3.org/TR/2001/REC-SVG-20010904/DTD/svg10.dtd">
<svg version="1.0" xmlns="http://www.w3.org/2000/svg"
 width="512.000000pt" height="512.000000pt" viewBox="0 0 512.000000 512.000000"
 preserveAspectRatio="xMidYMid meet">

<g transform="translate(0.000000,512.000000) scale(0.100000,-0.100000)"
fill="#000000" stroke="none">
<path d="M1410 4630 c-20 -20 -20 -33 -20 -900 l0 -880 -676 -2 -676 -3 -19
-24 c-43 -53 -10 -102 74 -109 l57 -4 0 -908 0 -907 -57 -6 c-90 -9 -93 -16
-93 -213 0 -151 2 -166 20 -184 20 -20 33 -20 2540 -20 2507 0 2520 0 2540 20
18 18 20 33 20 184 0 197 -3 204 -92 213 l-58 6 0 907 0 908 57 4 c84 7 117
56 74 109 l-19 24 -686 3 -686 2 0 880 c0 867 0 880 -20 900 -20 20 -33 20
-1140 20 -1107 0 -1120 0 -1140 -20z m2170 -945 l0 -835 -75 0 -75 0 -2 734
c-3 706 -4 735 -22 755 -19 21 -26 21 -392 21 l-373 0 -15 -22 c-14 -20 -16
-108 -16 -755 l0 -733 -60 0 -60 0 0 737 c0 671 -1 738 -17 755 -15 17 -40 18
-386 18 -331 0 -372 -2 -389 -17 -17 -15 -18 -52 -18 -755 l0 -738 -80 0 -80
0 0 835 0 835 1030 0 1030 0 0 -835z m-1220 -145 l0 -690 -275 0 -275 0 0 690
0 690 275 0 275 0 0 -690z m930 0 l0 -690 -275 0 -275 0 0 690 0 690 275 0
275 0 0 -690z m-2780 -1740 l0 -910 -115 0 -115 0 0 910 0 910 115 0 115 0 0
-910z m440 0 l0 -910 -155 0 -155 0 0 910 0 910 155 0 155 0 0 -910z m440 0
l0 -910 -155 0 -155 0 0 910 0 910 155 0 155 0 0 -910z m440 0 l0 -910 -155 0
-155 0 0 910 0 910 155 0 155 0 0 -910z m440 0 l0 -910 -150 0 -150 0 0 910 0
910 150 0 150 0 0 -910z m450 0 l0 -910 -155 0 -155 0 0 910 0 910 155 0 155
0 0 -910z m440 0 l0 -910 -155 0 -155 0 0 910 0 910 155 0 155 0 0 -910z m420
0 l0 -910 -145 0 -145 0 0 910 0 910 145 0 145 0 0 -910z m460 0 l0 -910 -155
0 -155 0 0 910 0 910 155 0 155 0 0 -910z m440 0 l0 -910 -155 0 -155 0 0 910
0 910 155 0 155 0 0 -910z m360 0 l0 -910 -110 0 -110 0 0 910 0 910 110 0
110 0 0 -910z m150 -1125 l0 -75 -2430 0 -2430 0 0 75 0 75 2430 0 2430 0 0
-75z"/>
</g>
</svg>
