<?xml version="1.0" standalone="no"?>
<!DOCTYPE svg PUBLIC "-//W3C//DTD SVG 20010904//EN"
 "http://www.w3.org/TR/2001/REC-SVG-20010904/DTD/svg10.dtd">
<svg version="1.0" xmlns="http://www.w3.org/2000/svg"
 width="820.000000pt" height="772.000000pt" viewBox="0 0 820.000000 772.000000"
 preserveAspectRatio="xMidYMid meet">

<g transform="translate(0.000000,772.000000) scale(0.100000,-0.100000)"
fill="#000000" stroke="none">
<path d="M1114 7296 c-49 -22 -106 -77 -128 -126 -21 -45 -21 -56 -24 -1082
l-3 -1038 124 0 124 0 58 289 57 288 157 32 c794 162 1523 162 2308 -1 l153
-31 2 -286 3 -286 163 -3 162 -2 0 280 0 281 33 14 c70 29 409 90 662 119 520
60 1108 42 1600 -49 130 -24 322 -69 330 -77 3 -3 65 -293 106 -494 l12 -61
75 -7 c41 -3 92 -6 114 -6 l38 0 0 938 c0 965 -6 1141 -35 1204 -22 45 -111
105 -171 114 -96 14 -190 -24 -244 -98 -36 -49 -39 -66 -48 -238 l-7 -135
-2636 -3 -2636 -2 -6 152 c-6 132 -10 159 -30 198 -27 52 -91 105 -145 120
-51 14 -131 12 -168 -4z"/>
<path d="M995 4892 c-49 -9 -5 97 -415 -997 -442 -1182 -470 -1257 -470 -1267
0 -4 1795 -8 3990 -8 2195 0 3990 4 3990 8 0 7 -186 508 -721 1938 l-121 322
-96 4 c-53 3 -100 3 -103 2 -4 -2 2 -43 11 -91 10 -48 16 -91 13 -96 -21 -35
-483 -128 -808 -162 -313 -34 -905 -31 -1230 6 -198 23 -720 122 -756 145 -5
3 -9 50 -9 105 l0 99 -162 -2 -163 -3 -3 -101 -3 -100 -112 -27 c-275 -66
-619 -120 -892 -138 -191 -13 -767 -6 -930 11 -211 22 -583 85 -752 127 -117
29 -111 20 -92 144 6 39 9 72 7 74 -8 8 -135 13 -173 7z"/>
<path d="M870 2450 c-613 -5 -657 -7 -692 -24 -20 -10 -41 -31 -48 -45 -26
-56 -31 -237 -28 -894 3 -649 4 -673 23 -711 32 -64 60 -78 164 -84 l91 -5 0
-91 c0 -232 56 -343 198 -396 67 -25 117 -25 184 0 143 53 198 163 198 392 l0
98 3140 0 3140 0 0 -105 c0 -225 53 -326 203 -387 70 -28 126 -23 209 20 57
29 80 48 105 85 45 67 53 103 60 253 l6 131 89 5 c103 6 131 21 163 84 19 38
20 62 23 689 2 358 -1 705 -6 773 -8 109 -11 125 -33 148 -54 58 -49 57 -509
65 -484 8 -5688 8 -6680 -1z"/>
</g>
</svg>
