<?xml version="1.0" standalone="no"?>
<!DOCTYPE svg PUBLIC "-//W3C//DTD SVG 20010904//EN"
 "http://www.w3.org/TR/2001/REC-SVG-20010904/DTD/svg10.dtd">
<svg version="1.0" xmlns="http://www.w3.org/2000/svg"
 width="225.000000pt" height="225.000000pt" viewBox="0 0 225.000000 225.000000"
 preserveAspectRatio="xMidYMid meet">

<g transform="translate(0.000000,225.000000) scale(0.100000,-0.100000)"
fill="#000000" stroke="none">
<path d="M465 1889 c-83 -31 -120 -85 -137 -202 -20 -140 -17 -165 29 -242 55
-92 80 -123 117 -146 65 -40 166 -11 209 59 93 147 91 145 91 207 0 146 -45
269 -113 309 -39 22 -152 31 -196 15z"/>
<path d="M1617 1886 c-81 -30 -127 -100 -127 -195 0 -33 -5 -63 -11 -67 -7 -4
-10 -28 -7 -63 5 -55 12 -71 95 -203 26 -42 87 -78 133 -78 73 0 118 38 193
165 35 59 41 78 40 120 -3 150 -50 273 -116 308 -49 25 -150 32 -200 13z"/>
<path d="M1075 1635 c-5 -2 -26 -6 -46 -9 -103 -18 -179 -117 -179 -235 0 -39
-6 -78 -15 -95 -22 -42 -19 -106 9 -157 98 -185 125 -220 189 -250 107 -48
210 3 286 141 75 136 83 159 78 208 -28 247 -81 354 -185 381 -46 12 -124 21
-137 16z"/>
<path d="M264 1280 c-110 -49 -157 -87 -189 -151 -35 -69 -59 -177 -44 -195
27 -33 171 -61 385 -74 l162 -11 64 35 c34 19 94 47 131 62 38 15 71 32 73 38
3 7 -13 43 -36 82 -45 78 -65 161 -51 211 7 25 6 33 -6 37 -26 10 -31 7 -38
-31 -15 -82 -66 -220 -92 -251 -42 -49 -89 -54 -135 -13 -39 34 -65 92 -99
219 -11 45 -24 82 -28 82 -3 0 -47 -18 -97 -40z"/>
<path d="M1486 1308 c-26 -9 -28 -14 -23 -46 9 -53 -10 -122 -54 -197 -21 -37
-39 -71 -39 -77 0 -5 17 -16 38 -24 20 -9 83 -38 140 -65 l103 -50 172 10
c176 11 243 20 333 46 73 21 78 30 60 109 -20 85 -56 155 -99 193 -33 29 -224
119 -233 110 -3 -2 -16 -46 -30 -97 -32 -123 -54 -170 -93 -203 -87 -73 -162
2 -213 212 -12 50 -25 91 -28 90 -3 0 -18 -5 -34 -11z"/>
<path d="M758 871 c-58 -26 -124 -62 -146 -80 -79 -62 -136 -186 -137 -295 l0
-59 50 -18 c132 -46 332 -69 591 -69 248 0 442 23 579 68 46 16 50 20 53 52 9
92 -52 246 -123 308 -44 38 -266 147 -287 140 -6 -2 -26 -55 -45 -118 -42
-140 -92 -270 -103 -270 -17 0 -28 111 -15 154 7 22 15 58 19 79 l7 37 -91 0
c-88 0 -90 0 -86 -22 3 -13 8 -41 11 -63 4 -22 11 -45 16 -51 5 -6 3 -39 -3
-78 -6 -37 -14 -63 -18 -59 -18 21 -67 151 -101 263 -22 76 -42 126 -50 127
-8 1 -62 -19 -121 -46z"/>
</g>
</svg>
