<?xml version="1.0" standalone="no"?>
<!DOCTYPE svg PUBLIC "-//W3C//DTD SVG 20010904//EN"
 "http://www.w3.org/TR/2001/REC-SVG-20010904/DTD/svg10.dtd">
<svg version="1.0" xmlns="http://www.w3.org/2000/svg"
 width="840.000000pt" height="572.000000pt" viewBox="0 0 840.000000 572.000000"
 preserveAspectRatio="xMidYMid meet">

<g transform="translate(0.000000,572.000000) scale(0.100000,-0.100000)"
fill="#000000" stroke="none">
<path d="M4063 4936 c-39 -8 -93 -22 -120 -32 -39 -14 -1443 -745 -1780 -925
-100 -54 -137 -89 -153 -147 -12 -46 -12 -58 0 -104 16 -55 52 -92 133 -137
57 -31 1069 -564 1652 -871 131 -68 217 -98 317 -109 94 -10 226 2 308 29 55
19 1776 911 1882 977 63 39 98 130 78 203 -23 85 -30 89 -925 561 -933 491
-994 522 -1080 544 -86 22 -226 27 -312 11z m222 -278 c32 -6 102 -34 154 -61
296 -152 1469 -773 1484 -786 11 -9 17 -26 15 -44 -3 -26 -19 -37 -208 -136
-113 -59 -461 -242 -775 -406 -313 -165 -592 -307 -620 -317 -68 -23 -212 -24
-280 0 -27 10 -322 161 -655 337 -333 175 -679 358 -770 406 -171 90 -199 113
-181 147 6 12 162 99 368 207 197 104 547 287 778 409 497 261 537 275 690
244z"/>
<path d="M2033 2900 c-76 -46 -85 -162 -17 -221 11 -9 447 -231 969 -493 1083
-543 1033 -522 1245 -513 101 4 140 10 200 32 41 14 498 239 1015 498 1030
517 978 486 978 577 0 73 -65 139 -138 140 -20 1 -343 -155 -995 -481 l-966
-482 -95 -5 c-72 -3 -110 0 -155 13 -32 9 -478 228 -990 486 -1012 509 -977
495 -1051 449z"/>
<path d="M2066 1975 c-65 -23 -96 -66 -96 -132 0 -64 29 -97 127 -146 380
-191 1860 -889 1911 -902 137 -35 299 -29 426 15 41 14 599 278 1849 874 112
54 137 82 137 156 0 85 -69 148 -149 137 -20 -3 -135 -52 -256 -110 -227 -108
-823 -391 -1353 -644 -308 -146 -381 -173 -462 -173 -96 0 -170 31 -785 325
-1112 532 -1260 602 -1287 607 -14 3 -43 -1 -62 -7z"/>
</g>
</svg>
