<?xml version="1.0" standalone="no"?>
<!DOCTYPE svg PUBLIC "-//W3C//DTD SVG 20010904//EN"
 "http://www.w3.org/TR/2001/REC-SVG-20010904/DTD/svg10.dtd">
<svg version="1.0" xmlns="http://www.w3.org/2000/svg"
 width="900.000000pt" height="512.000000pt" viewBox="0 0 900.000000 512.000000"
 preserveAspectRatio="xMidYMid meet">

<g transform="translate(0.000000,512.000000) scale(0.100000,-0.100000)"
fill="#000000" stroke="none">
<path d="M5812 4410 c-105 -22 -184 -101 -203 -204 -6 -34 -9 -241 -7 -553 3
-454 5 -502 21 -538 25 -55 73 -103 132 -131 48 -23 60 -24 268 -24 l217 0 0
-1089 0 -1088 26 -27 c19 -18 37 -26 63 -26 48 0 78 22 91 68 6 24 10 399 10
1099 l0 1062 228 3 c255 3 260 5 333 80 70 72 70 76 67 669 -3 515 -3 525 -25
564 -28 52 -78 99 -128 122 -37 16 -82 18 -545 20 -278 1 -524 -3 -548 -7z
m699 -304 c49 -18 111 -73 135 -118 35 -68 33 -222 -5 -297 -49 -94 -132 -131
-311 -138 -99 -4 -128 -8 -137 -21 -9 -11 -13 -57 -13 -144 0 -148 0 -148 -99
-148 -97 0 -91 -31 -91 449 0 320 3 420 13 430 20 20 447 10 508 -13z"/>
<path d="M6197 3956 c-13 -14 -17 -36 -17 -107 0 -126 2 -129 103 -129 142 0
185 23 194 104 7 58 -11 103 -50 122 -17 9 -68 18 -121 21 -78 5 -94 3 -109
-11z"/>
<path d="M2783 3551 c-65 -24 -127 -66 -180 -124 -52 -56 -51 -54 -168 -339
-63 -154 -103 -238 -112 -238 -8 0 -55 12 -106 26 -146 41 -214 25 -257 -62
-28 -55 -28 -210 -1 -270 26 -57 83 -101 149 -115 44 -9 52 -14 46 -27 -23
-52 -75 -219 -91 -292 -16 -77 -18 -143 -18 -681 l0 -596 28 -40 c15 -22 46
-50 70 -63 38 -22 57 -25 187 -28 178 -5 246 7 297 51 62 54 73 92 73 253 l0
141 1130 0 1130 0 0 -126 c0 -69 5 -144 11 -166 15 -55 52 -101 102 -128 39
-20 55 -22 222 -22 167 0 183 2 222 22 47 25 84 71 102 122 14 44 15 978 1
1121 -12 114 -55 295 -92 387 l-25 62 41 7 c48 8 104 34 127 60 43 49 54 87
54 194 0 119 -14 157 -75 197 -43 30 -93 29 -200 -1 -47 -14 -93 -26 -103 -28
-15 -2 -37 43 -126 259 -119 290 -141 325 -242 392 -112 75 -48 71 -1153 71
-941 -1 -994 -2 -1043 -19z m1970 -162 c50 -25 103 -73 124 -113 23 -44 294
-705 309 -754 11 -37 11 -49 0 -77 -8 -18 -25 -39 -38 -47 -19 -11 -259 -13
-1321 -13 l-1299 0 -29 33 c-20 22 -29 43 -29 65 1 50 310 792 350 840 18 22
56 50 84 63 l51 24 878 0 c873 0 878 0 920 -21z m-1648 -1435 c36 -14 45 -57
45 -209 0 -152 -9 -195 -45 -209 -9 -3 -156 -6 -326 -6 l-310 0 -24 25 c-25
24 -25 27 -25 190 0 163 0 166 25 190 l24 25 310 0 c170 0 317 -3 326 -6z
m2110 -19 c25 -24 25 -27 25 -190 0 -163 0 -166 -25 -190 l-24 -25 -316 0
-316 0 -24 25 c-25 24 -25 27 -25 190 0 163 0 166 25 190 l24 25 316 0 316 0
24 -25z"/>
</g>
</svg>
