<?xml version="1.0" standalone="no"?>
<!DOCTYPE svg PUBLIC "-//W3C//DTD SVG 20010904//EN"
 "http://www.w3.org/TR/2001/REC-SVG-20010904/DTD/svg10.dtd">
<svg version="1.0" xmlns="http://www.w3.org/2000/svg"
 width="24.000000pt" height="24.000000pt" viewBox="0 0 24.000000 24.000000"
 preserveAspectRatio="xMidYMid meet">

<g transform="translate(0.000000,24.000000) scale(0.100000,-0.100000)"
fill="#000000" stroke="none">
<path d="M0 173 l0 -67 53 52 c44 44 58 52 90 52 20 0 37 -4 37 -8 0 -5 11
-15 25 -22 14 -7 25 -18 25 -23 0 -6 -9 -2 -21 9 -17 15 -22 16 -29 4 -7 -12
-10 -12 -16 3 -3 9 -13 17 -21 17 -19 0 -13 -32 7 -36 8 -2 31 -8 50 -13 28
-7 30 -9 10 -10 -15 -1 -44 -20 -77 -53 l-53 -52 -40 39 -40 39 0 -52 0 -52
120 0 120 0 -1 120 0 120 -120 0 -119 0 0 -67z"/>
</g>
</svg>
