<?xml version="1.0" standalone="no"?>
<!DOCTYPE svg PUBLIC "-//W3C//DTD SVG 20010904//EN"
 "http://www.w3.org/TR/2001/REC-SVG-20010904/DTD/svg10.dtd">
<svg version="1.0" xmlns="http://www.w3.org/2000/svg"
 width="920.000000pt" height="512.000000pt" viewBox="0 0 920.000000 512.000000"
 preserveAspectRatio="xMidYMid meet">

<g transform="translate(0.000000,512.000000) scale(0.100000,-0.100000)"
fill="#000000" stroke="none">
<path d="M3318 2902 l-1278 -846 0 -353 0 -353 193 128 c904 603 2354 1556
2367 1556 13 0 1463 -953 2368 -1556 l192 -128 0 353 0 353 -1276 844 c-703
465 -1280 846 -1283 847 -3 0 -581 -380 -1283 -845z"/>
<path d="M6170 3380 l0 -370 300 -200 300 -200 0 570 0 570 -300 0 -300 0 0
-370z"/>
</g>
</svg>
