<svg xmlns="http://www.w3.org/2000/svg" width="512.005" height="512.001" viewBox="0 0 512.005 512.001">
  <g id="area-plus" transform="translate(0 -0.002)">
    <path id="Path_2806" data-name="Path 2806" d="M344.462,126.447H167.539a41.14,41.14,0,0,0-41.093,41.093V344.464a41.14,41.14,0,0,0,41.093,41.093H344.463a41.141,41.141,0,0,0,41.094-41.093V307.887a7.5,7.5,0,0,0-15,0v36.577a26.123,26.123,0,0,1-26.094,26.093H167.539a26.123,26.123,0,0,1-26.093-26.093V167.54a26.123,26.123,0,0,1,26.093-26.093H344.463a26.124,26.124,0,0,1,26.094,26.093V272.887a7.5,7.5,0,0,0,15,0V167.54a41.142,41.142,0,0,0-41.1-41.093ZM25.607,15H57.9a7.5,7.5,0,0,0,0-15H7.5A7.551,7.551,0,0,0,0,7.5V57.9a7.5,7.5,0,0,0,15,0v-32.3l95.3,95.3A7.5,7.5,0,0,0,120.908,110.3ZM110.3,391.095,15,486.4V454.1a7.5,7.5,0,0,0-15,0v50.4A7.558,7.558,0,0,0,7.5,512H57.9a7.5,7.5,0,0,0,0-15h-32.3l95.3-95.3A7.5,7.5,0,1,0,110.3,391.095ZM511.963,6.76A7.551,7.551,0,0,0,504.5,0H454.1a7.5,7.5,0,0,0,0,15h32.3l-95.3,95.3A7.5,7.5,0,0,0,401.7,120.91L497,25.61v32.3a7.5,7.5,0,0,0,15,0V7.507a7.46,7.46,0,0,0-.038-.747ZM504.5,446.6a7.5,7.5,0,0,0-7.5,7.5v32.3l-95.3-95.3A7.5,7.5,0,0,0,391.093,401.7l95.3,95.3H454.1a7.5,7.5,0,0,0,0,15h50.4A7.565,7.565,0,0,0,512,504.5V454.1a7.5,7.5,0,0,0-7.5-7.5ZM232.283,191.1a7.5,7.5,0,1,0,0-15H190.241A14.158,14.158,0,0,0,176.1,190.243V321.761A14.158,14.158,0,0,0,190.241,335.9H321.759A14.159,14.159,0,0,0,335.9,321.761V190.243A14.159,14.159,0,0,0,321.759,176.1H267.283a7.5,7.5,0,0,0,0,15H320.9V320.9H191.1V191.1Z" fill="#87805e"/>
  </g>
</svg>
