<svg xmlns="http://www.w3.org/2000/svg" width="56.999" height="57" viewBox="0 0 56.999 57">
  <g id="area" transform="translate(-3.5 -3.5)">
    <path id="Path_2807" data-name="Path 2807" d="M54.323,3.5H20.309a1.5,1.5,0,0,0,0,3H54.323A3.18,3.18,0,0,1,57.5,9.676V43.691a1.5,1.5,0,1,0,3,0V9.676A6.183,6.183,0,0,0,54.323,3.5Z" fill="#87805e"/>
    <path id="Path_2808" data-name="Path 2808" d="M55.383,48.587a1.536,1.536,0,0,0-2.121,0,1.5,1.5,0,0,0,0,2.121l2.116,2.116H14.352a3.18,3.18,0,0,1-3.176-3.176V8.621l2.115,2.116a1.536,1.536,0,0,0,2.121,0,1.5,1.5,0,0,0,0-2.121L10.737,3.939a1.536,1.536,0,0,0-2.121,0L3.939,8.616a1.5,1.5,0,0,0,0,2.121,1.536,1.536,0,0,0,2.121,0L8.176,8.621V49.647a6.183,6.183,0,0,0,6.176,6.176H55.379l-2.116,2.116a1.5,1.5,0,0,0,2.121,2.121l4.677-4.676a1.5,1.5,0,0,0,0-2.121Z" fill="#87805e"/>
    <path id="Path_2809" data-name="Path 2809" d="M38.755,42.161a1.5,1.5,0,0,0,1.5-1.5V26.2a5.726,5.726,0,0,0-9.98-3.847,5.743,5.743,0,0,0-4.239-1.893,5.584,5.584,0,0,0-2.742.719,1.5,1.5,0,0,0-3,.071V40.661a1.5,1.5,0,0,0,3,0V26.2a2.74,2.74,0,1,1,5.479,0V40.661a1.5,1.5,0,0,0,3,0V26.2a2.74,2.74,0,0,1,5.48,0V40.661a1.5,1.5,0,0,0,1.5,1.5Z" fill="#87805e"/>
    <path id="Path_2810" data-name="Path 2810" d="M50.45,21.319l.238-.325a4.43,4.43,0,1,0-8.109-2.464,1.5,1.5,0,1,0,3,0,1.434,1.434,0,1,1,2.7.689L43.6,24.238a1.889,1.889,0,0,0,1.377,3.181h4.878a1.5,1.5,0,1,0,0-3H47.547l2.793-2.97C50.379,21.408,50.416,21.364,50.45,21.319Z" fill="#87805e"/>
  </g>
</svg>
