<svg xmlns="http://www.w3.org/2000/svg" width="494" height="496.234" viewBox="0 0 494 496.234">
  <path id="balcony" d="M496,444.759H484.589V317.68H496a7,7,0,0,0,0-14H410.725V162.608a154.726,154.726,0,0,0-309.452,0V303.68H16a7,7,0,0,0,0,14H27.41V444.759H16a7,7,0,0,0-7,7v45.358a7,7,0,0,0,7,7H496a7,7,0,0,0,7-7V451.759A7,7,0,0,0,496,444.759Zm-25.411,0H410.724V317.68h59.865ZM175.136,317.68V444.759H115.273V317.68Zm14,0H249V444.759H189.136ZM263,444.759V317.68h59.862V444.759ZM336.862,317.68h59.863V444.759H336.862ZM263,303.68V169.609H396.725V303.68ZM360.286,68.22a140.181,140.181,0,0,1,36.264,87.388H272.9ZM263,145.709V22.058a140.178,140.178,0,0,1,87.388,36.264Zm-14,0L161.611,58.321A140.183,140.183,0,0,1,249,22.057ZM151.712,68.22,239.1,155.608H115.448A140.178,140.178,0,0,1,151.712,68.22ZM115.273,169.608H249V303.679H115.273ZM41.41,317.68h59.863V444.759H41.41ZM489,490.117H23V458.759H489Z" transform="translate(-9 -7.883)" fill="#87805e"/>
</svg>
