<svg xmlns="http://www.w3.org/2000/svg" width="491.203" height="475.193" viewBox="0 0 491.203 475.193">
  <g id="floor" transform="translate(0 -8.005)">
    <g id="Group_2561" data-name="Group 2561">
      <path id="Path_2811" data-name="Path 2811" d="M487.3,326.733l-62.3-37.128,62.3-37.128a8,8,0,0,0,0-13.744l-62.3-37.128,62.3-37.128a8,8,0,0,0,0-13.744L249.7,9.133a8,8,0,0,0-8.192,0l-237.6,141.6a8,8,0,0,0,0,13.744l62.3,37.128L3.9,238.733a8,8,0,0,0,0,13.744l62.3,37.128L3.9,326.733a8,8,0,0,0,0,13.744l237.6,141.6a8.047,8.047,0,0,0,8.192,0l237.6-141.6a8,8,0,0,0,0-13.744ZM23.625,157.6,245.6,25.317,467.577,157.6,245.6,289.893Zm0,88,58.208-34.68,159.672,95.2a8,8,0,0,0,8.192,0l159.672-95.2,58.208,34.68L245.6,377.893ZM245.6,465.893,23.625,333.605l58.208-34.68,159.672,95.2a8,8,0,0,0,8.192,0l159.672-95.2,58.208,34.68Z" fill="#87805e"/>
    </g>
  </g>
</svg>
