<svg xmlns="http://www.w3.org/2000/svg" width="591.92" height="591.96" viewBox="0 0 591.92 591.96">
  <g id="garden" transform="translate(-50.55 -51.65)">
    <path id="Path_2819" data-name="Path 2819" d="M252.86,269H125.55a15,15,0,1,1,0-30H237.86V126.65a15,15,0,0,1,30,0V254a15,15,0,0,1-15,15Z" fill="#87805e"/>
    <path id="Path_2820" data-name="Path 2820" d="M252.86,583.57a15,15,0,0,1-15-15V456.26H125.55a15,15,0,1,1,0-30H252.86a15,15,0,0,1,15,15V568.57a15,15,0,0,1-15,15Z" fill="#87805e"/>
    <path id="Path_2821" data-name="Path 2821" d="M302.24,456.27H252.86a15,15,0,0,1-15-15V254a15,15,0,0,1,15-15H440.17a15,15,0,0,1,15,15v49.52a15,15,0,1,1-30,0V269H267.86V426.27h34.38a15,15,0,0,1,0,30Z" fill="#87805e"/>
    <path id="Path_2822" data-name="Path 2822" d="M567.47,269H440.16a15,15,0,0,1-15-15V126.65a15,15,0,0,1,30,0V239H567.47a15,15,0,0,1,0,30Z" fill="#87805e"/>
    <path id="Path_2823" data-name="Path 2823" d="M627.47,643.57H312.37a15,15,0,1,1,0-30h300.1V313.47a15,15,0,0,1,30,0v315.1a15,15,0,0,1-15,15Z" fill="#87805e"/>
    <path id="Path_2824" data-name="Path 2824" d="M312.37,643.57a15,15,0,0,1-15-15A327.39,327.39,0,0,1,362,432.34a331,331,0,0,1,69.24-69.24,327.46,327.46,0,0,1,196.23-64.63,15,15,0,1,1,0,30c-165.79,0-300.144,134.39-300.1,300.14a15,15,0,0,1-15,14.96Z" fill="#87805e"/>
    <path id="Path_2825" data-name="Path 2825" d="M417.4,643.57a15,15,0,0,1-10.608-4.4L365.12,597.5a15,15,0,0,1,21.22-21.21L428,618a15,15,0,0,1-10.61,25.61Z" fill="#87805e"/>
    <path id="Path_2826" data-name="Path 2826" d="M522.43,643.57a14.94,14.94,0,0,1-10.6-4.4L391.71,519.06a15,15,0,0,1,21.22-21.21L533,618a15,15,0,0,1-10.61,25.61Z" fill="#87805e"/>
    <path id="Path_2827" data-name="Path 2827" d="M627.47,643.57a15,15,0,0,1-10.608-4.4L436.47,458.78a15,15,0,0,1,21.22-21.21L638.07,618a15,15,0,0,1-10.6,25.61Z" fill="#87805e"/>
    <path id="Path_2828" data-name="Path 2828" d="M627.47,538.53a15,15,0,0,1-10.61-4.39L496.75,414A15,15,0,1,1,518,392.82L638.08,512.93a15,15,0,0,1-10.61,25.6Z" fill="#87805e"/>
    <path id="Path_2829" data-name="Path 2829" d="M627.47,433.5a15,15,0,0,1-10.61-4.39l-41.67-41.67a15,15,0,0,1,21.21-21.22l41.67,41.67a15,15,0,0,1-10.6,25.61Z" fill="#87805e"/>
    <path id="Path_2830" data-name="Path 2830" d="M252.86,643.57H65.55a15,15,0,0,1-15-15V66.65a15,15,0,0,1,15-15H627.47a15,15,0,0,1,15,15V254a15,15,0,0,1-30,0V81.65H80.55V613.57H252.86a15,15,0,0,1,0,30Z" fill="#87805e"/>
  </g>
</svg>
