<svg xmlns="http://www.w3.org/2000/svg" width="93.6" height="78.55" viewBox="0 0 93.6 78.55">
  <g id="gates" transform="translate(-17.4 -24.55)">
    <path id="Path_2831" data-name="Path 2831" d="M52.6,75.3a6.061,6.061,0,0,0,6.1-6.1A6.146,6.146,0,0,0,52.6,63a6.061,6.061,0,0,0-6.1,6.1A6.146,6.146,0,0,0,52.6,75.3Zm0-8.8A2.6,2.6,0,1,1,50,69.1,2.647,2.647,0,0,1,52.6,66.5Z" fill="#87805e"/>
    <path id="Path_2832" data-name="Path 2832" d="M109.5,37.7a9.16,9.16,0,0,0,1.1-4.3c0-4.9-6.9-8.4-7.7-8.7a1.95,1.95,0,0,0-1.5,0c-.8.4-7.7,3.8-7.7,8.7a9.879,9.879,0,0,0,1.1,4.4,1.714,1.714,0,0,0-1.1,1.6v3.8a53.537,53.537,0,0,0-27.8-7.8H62.3a53.275,53.275,0,0,0-27.8,7.8V39.4a1.622,1.622,0,0,0-1.1-1.6,9.257,9.257,0,0,0,1.1-4.4c0-4.9-6.9-8.4-7.7-8.7a1.95,1.95,0,0,0-1.5,0c-.8.4-7.7,3.8-7.7,8.7a9.16,9.16,0,0,0,1.1,4.3,1.831,1.831,0,0,0-1.3,1.7v61.9a1.859,1.859,0,0,0,1.8,1.8h90a1.859,1.859,0,0,0,1.8-1.8v-62a2.646,2.646,0,0,0-1.5-1.6Zm-7.4-9.5c2,1.1,5,3.3,5,5.2a5.535,5.535,0,0,1-1.9,4.2H99a5.7,5.7,0,0,1-1.9-4.2C97.1,31.5,100.1,29.3,102.1,28.2ZM62.2,38.8l.1,60.7h-28V47.3a50.581,50.581,0,0,1,27.9-8.5ZM25.9,28.2c2,1.1,5,3.3,5,5.2A5.535,5.535,0,0,1,29,37.6H22.8a5.7,5.7,0,0,1-1.9-4.2c0-1.9,3-4.1,5-5.2ZM20.8,41.1H30.9s-.1,53.7-.1,58.4h-10Zm45-2.3a49.314,49.314,0,0,1,27.9,8.5V99.5H65.8Zm41.5,60.7h-10c0-5.2-.1-58.4-.1-58.4h10.1Z" fill="#87805e"/>
    <path id="Path_2833" data-name="Path 2833" d="M75.4,63a6.1,6.1,0,1,0,6.1,6.1A6.19,6.19,0,0,0,75.4,63Zm0,8.8a2.582,2.582,0,0,1-2.6-2.6,2.647,2.647,0,0,1,2.6-2.6A2.582,2.582,0,0,1,78,69.2,2.647,2.647,0,0,1,75.4,71.8Z" fill="#87805e"/>
  </g>
</svg>
