<svg xmlns="http://www.w3.org/2000/svg" width="60.001" height="60.001" viewBox="0 0 60.001 60.001">
  <g id="house-cleaning" transform="translate(-1.999 -1.999)">
    <path id="Path_2834" data-name="Path 2834" d="M61.667,28.255,47,15.1V13a3,3,0,0,0-3-3,2.972,2.972,0,0,0-1.906.7L32.667,2.255a1,1,0,0,0-1.335,0l-29,26A1,1,0,0,0,3,30H5V61a1,1,0,0,0,1,1H58a1,1,0,0,0,1-1V30h2a1,1,0,0,0,.667-1.745ZM58.387,28H47V17.79ZM50,50H38V47.865A2.868,2.868,0,0,1,40.865,45h6.271A2.868,2.868,0,0,1,50,47.865ZM43,13a1,1,0,0,1,2,0V43H43ZM32,4.343l9.055,8.114A2.94,2.94,0,0,0,41,13V28H5.613ZM7,30H41V43h-.135A4.87,4.87,0,0,0,36,47.865v2.942L32.323,60H25V41a1,1,0,0,0-1-1H12a1,1,0,0,0-1,1V60H7Zm6,30V42H23V60Zm36.82,0-.839-4.2L47.02,56.2l.76,3.8H45V56H43v4H40.22l.761-3.8L39.02,55.8,38.18,60h-3.7l3.2-8H50.323l3.2,8ZM57,60H55.677L52,50.807V47.865A4.87,4.87,0,0,0,47.135,43H47V30H57Z" fill="#87805e"/>
    <path id="Path_2835" data-name="Path 2835" d="M27,25H37a1,1,0,0,0,1-1V18a6,6,0,0,0-12,0v6A1,1,0,0,0,27,25Zm1-5h3v3H28Zm5,3V20h3v3Zm3-5H33V14.142A4,4,0,0,1,36,18Zm-5-3.858V18H28A4,4,0,0,1,31,14.142Z" fill="#87805e"/>
    <path id="Path_2836" data-name="Path 2836" d="M15,50h2v2H15Z" fill="#87805e"/>
    <path id="Path_2837" data-name="Path 2837" d="M32,44h2a5.006,5.006,0,0,1,5-5V37a5.006,5.006,0,0,1-5-5H32a5.006,5.006,0,0,1-5,5v2A5.006,5.006,0,0,1,32,44Zm1-8.413A7.036,7.036,0,0,0,35.413,38,7.036,7.036,0,0,0,33,40.413,7.036,7.036,0,0,0,30.587,38,7.036,7.036,0,0,0,33,35.587Z" fill="#87805e"/>
  </g>
</svg>
