<svg xmlns="http://www.w3.org/2000/svg" width="52" height="52" viewBox="0 0 52 52">
  <g id="Layer_70" data-name="Layer 70" transform="translate(-6 -6)">
    <path id="Path_2838" data-name="Path 2838" d="M57,58H7V31H57ZM9,56H55V33H9Z" fill="#87805e"/>
    <path id="Path_2839" data-name="Path 2839" d="M53,16H35V12.38l4-2V6H49v4.38l4,2ZM37,14H51v-.38l-4-2V8H41v3.62l-4,2Z" fill="#87805e"/>
    <path id="Path_2840" data-name="Path 2840" d="M53,53H35V40H53ZM37,51H51V42H37Z" fill="#87805e"/>
    <circle id="Ellipse_103" data-name="Ellipse 103" cx="1.5" cy="1.5" r="1.5" transform="translate(43 35)" fill="#87805e"/>
    <circle id="Ellipse_104" data-name="Ellipse 104" cx="1.5" cy="1.5" r="1.5" transform="translate(48 35)" fill="#87805e"/>
    <path id="Path_2841" data-name="Path 2841" d="M41,33H39V28h4v2H41Z" fill="#87805e"/>
    <path id="Path_2842" data-name="Path 2842" d="M49,33H47V30H45V28h4Z" fill="#87805e"/>
    <path id="Path_2843" data-name="Path 2843" d="M32,54H11V36H32ZM13,52H30V38H13Z" fill="#87805e"/>
    <path id="Path_2844" data-name="Path 2844" d="M11,44H32v2H11Z" fill="#87805e"/>
    <path id="Path_2845" data-name="Path 2845" d="M19,40h4v2H19Z" fill="#87805e"/>
    <path id="Path_2846" data-name="Path 2846" d="M19,48h4v2H19Z" fill="#87805e"/>
    <path id="Path_2847" data-name="Path 2847" d="M42,43h4v2H42Z" fill="#87805e"/>
    <path id="Path_2848" data-name="Path 2848" d="M23,9h7v2H23Z" fill="#87805e"/>
    <path id="Path_2849" data-name="Path 2849" d="M12,9H25v2H12Z" fill="#87805e"/>
    <path id="Path_2850" data-name="Path 2850" d="M9,9h5v2H9Z" fill="#87805e"/>
    <path id="Path_2851" data-name="Path 2851" d="M12,7h2V22H12Z" fill="#87805e"/>
    <path id="Path_2852" data-name="Path 2852" d="M23,7h2V17H23Z" fill="#87805e"/>
    <path id="Path_2853" data-name="Path 2853" d="M13,26a3,3,0,1,1,3-3A3,3,0,0,1,13,26Zm0-4a1,1,0,1,0,1,1A1,1,0,0,0,13,22Z" fill="#87805e"/>
    <path id="Path_2854" data-name="Path 2854" d="M24,27a6,6,0,1,1,6-6A6,6,0,0,1,24,27Zm0-10a4,4,0,1,0,4,4A4,4,0,0,0,24,17Z" fill="#87805e"/>
    <path id="Path_2855" data-name="Path 2855" d="M6,31H58v2H6Z" fill="#87805e"/>
  </g>
</svg>
