<svg xmlns="http://www.w3.org/2000/svg" width="117.5" height="84.144" viewBox="0 0 117.5 84.144">
  <g id="living-room" transform="translate(-5.25 -21.929)">
    <path id="Path_2856" data-name="Path 2856" d="M81.97,61.693v-8.75a6.758,6.758,0,0,0-6.75-6.75H19a6.758,6.758,0,0,0-6.75,6.75V61.69a8.745,8.745,0,0,0-7,8.571V91.927A6.758,6.758,0,0,0,12,98.677h3.283v5.644a1.75,1.75,0,0,0,1.75,1.75H24.7a1.75,1.75,0,0,0,1.75-1.75V98.677H67.636v5.644a1.75,1.75,0,0,0,1.75,1.75h7.669a1.75,1.75,0,0,0,1.75-1.75V98.677H82.22a6.758,6.758,0,0,0,6.75-6.75V70.261A8.737,8.737,0,0,0,81.97,61.693ZM19,49.693H75.22a3.254,3.254,0,0,1,3.25,3.25V61.7a9.044,9.044,0,0,0-7,8.852v1.931H22.749V70.555a9.044,9.044,0,0,0-7-8.852v-8.76A3.254,3.254,0,0,1,19,49.693Zm3.75,26.293H71.471v5.192H22.749Zm.2,26.585H18.783V98.677h4.169Zm52.353,0H71.136V98.677h4.169ZM85.47,91.927a3.254,3.254,0,0,1-3.25,3.25H12a3.254,3.254,0,0,1-3.25-3.25V70.261A5.248,5.248,0,0,1,14,65.012h.163a5.445,5.445,0,0,1,5.087,5.541V82.928A1.75,1.75,0,0,0,21,84.678H73.221a1.75,1.75,0,0,0,1.75-1.75V70.555a5.445,5.445,0,0,1,5.087-5.541,5.266,5.266,0,0,1,3.818,1.479,5.208,5.208,0,0,1,1.594,3.768Z" fill="#87805e"/>
    <path id="Path_2857" data-name="Path 2857" d="M122.712,47.58l-5.146-24.265a1.75,1.75,0,0,0-1.712-1.386H95.669a1.749,1.749,0,0,0-1.711,1.386L88.811,47.58a1.751,1.751,0,0,0,1.712,2.113h13.489V58.61H98.243a1.756,1.756,0,0,0-1.626,2.4c.031.078,3.044,8.071-1.466,22.509-4.231,13.547,3.668,21.7,4.007,22.038a1.746,1.746,0,0,0,1.241.516h10.726a1.746,1.746,0,0,0,1.241-.516c.339-.34,8.237-8.491,4.006-22.038-4.5-14.395-1.514-22.383-1.466-22.509a1.751,1.751,0,0,0-1.625-2.4h-5.769V49.693H121a1.749,1.749,0,0,0,1.712-2.113Zm-9.681,36.98c3.068,9.82-1.229,16.206-2.7,18.011H101.19c-1.448-1.8-5.752-8.247-2.7-18.011,3.491-11.176,2.794-18.821,2.042-22.45H110.99c-.753,3.629-1.45,11.274,2.041,22.45ZM92.684,46.193l4.4-20.764h17.349l4.4,20.764Z" fill="#87805e"/>
  </g>
</svg>
