<svg xmlns="http://www.w3.org/2000/svg" width="29" height="15.534" viewBox="0 0 29 15.534">
  <path id="roof" d="M19,18.267a.5.5,0,0,0-.5-.5h-5a.5.5,0,0,0-.5.5v5a.5.5,0,0,0,.5.5h5a.5.5,0,0,0,.5-.5Zm-5.505-7.529v.677L1.711,19.782a.5.5,0,0,0-.211.408v3.03a.5.5,0,0,0,.789.408L16,13.9l13.711,9.729a.5.5,0,0,0,.789-.408V20.2a.5.5,0,0,0-.21-.407L18.505,11.415v-.677a2.505,2.505,0,0,0-5.01,0ZM18,21.256H16.5v1.511H18Zm-2.5,1.511V21.256H14v1.511ZM14.495,10.738a1.5,1.5,0,1,1,3.01,0v.935a.5.5,0,0,0,.21.408L29.5,20.462v1.79L16.289,12.879a.5.5,0,0,0-.578,0L2.5,22.252v-1.8l11.784-8.367a.5.5,0,0,0,.211-.408ZM16.5,18.767v1.489H18V18.767ZM14,20.256h1.5V18.767H14Z" transform="translate(-1.5 -8.233)" fill="#87805e" fill-rule="evenodd"/>
</svg>
