<svg xmlns="http://www.w3.org/2000/svg" width="492" height="385.215" viewBox="0 0 492 385.215">
  <g id="sofa" transform="translate(-10 -93.393)">
    <path id="Path_2862" data-name="Path 2862" d="M218.417,209.314a52.855,52.855,0,0,0-13.765,14.306,6,6,0,1,0,10.051,6.557A40.9,40.9,0,0,1,225.356,219.1a6,6,0,1,0-6.939-9.79Z" fill="#87805e"/>
    <path id="Path_2863" data-name="Path 2863" d="M109.75,466.605H65.77V191.744c0-.1.014-.192.014-.29,0-47.453,36.608-86.059,81.605-86.059,43.257,0,78.743,35.686,81.422,80.605a52.944,52.944,0,0,0-46.694,52.5v9.375a6,6,0,0,0,6,6h26.7c2.652,9.6,11.228,16.691,21.272,16.691s18.619-7.087,21.27-16.691h24.509a6,6,0,0,0,6-6V238.5a52.946,52.946,0,0,0-47.025-52.544c-2.731-51.523-43.6-92.563-93.453-92.563-51.442,0-93.32,43.7-93.6,97.521-.01.139-.021.278-.021.419V466.6H16a6,6,0,0,0,0,12h93.75a6,6,0,1,0,0-12ZM236.088,258.568a9.941,9.941,0,0,1-8.283-4.691H244.37A9.941,9.941,0,0,1,236.088,258.568ZM275.867,238.5v3.375h-81.75V238.5a40.875,40.875,0,0,1,81.75,0Z" fill="#87805e"/>
    <path id="Path_2864" data-name="Path 2864" d="M473.663,373.9V334.2a25.286,25.286,0,0,0-25.451-25.06H338.418a25.216,25.216,0,0,0-18,7.428c-.494.5-.959,1.014-1.406,1.544a25.564,25.564,0,0,0-19.494-8.972H189.1a25.287,25.287,0,0,0-25.452,25.06v39.814a29.012,29.012,0,0,0-26.454,28.657v69.937a6,6,0,0,0,6,6h46.519a6,6,0,0,0,6-6v-7.993l247.769.076v7.917a6,6,0,0,0,6,6H496a6,6,0,0,0,6-6v-69.94A29.039,29.039,0,0,0,473.663,373.9ZM328.918,325.034a13.3,13.3,0,0,1,9.5-3.9H448.212a13.275,13.275,0,0,1,13.451,13.06v41.829a28.838,28.838,0,0,0-18.181,26.642v2.35L325,404.985l.015-70.187a13.616,13.616,0,0,1,3.9-9.764Zm-139.818-3.9H299.516A13.275,13.275,0,0,1,312.967,334.2l.027,70.782-117.281-.032v-2.281a28.884,28.884,0,0,0-20.065-27.327V334.2A13.276,13.276,0,0,1,189.1,321.137ZM183.713,466.6H149.194V402.668a17.266,17.266,0,0,1,34.519,0Zm12-13.993v-35.66l123.278.034H319l124.481.035v35.67ZM490,466.6H455.482V402.668a17.265,17.265,0,0,1,34.518,0Z" fill="#87805e"/>
  </g>
</svg>
