<svg id="space" xmlns="http://www.w3.org/2000/svg" width="64" height="64" viewBox="0 0 64 64">
  <path id="Path_2865" data-name="Path 2865" d="M48,0H16A16,16,0,0,0,0,16V48A16,16,0,0,0,16,64H48A16,16,0,0,0,64,48V16A16,16,0,0,0,48,0ZM61,48A13.015,13.015,0,0,1,48,61H16A13.015,13.015,0,0,1,3,48V16A13.015,13.015,0,0,1,16,3H48A13.015,13.015,0,0,1,61,16Z" fill="#87805e"/>
  <path id="Path_2866" data-name="Path 2866" d="M45.5,43.378,20.622,18.5h9.841v-3H15.5V30.463h3V20.621L43.379,45.5H33.537v3H48.5V33.537h-3Z" fill="#87805e"/>
</svg>
