<svg xmlns="http://www.w3.org/2000/svg" width="58" height="58.003" viewBox="0 0 58 58.003">
  <g id="Layer_4" data-name="Layer 4" transform="translate(-3 -2.997)">
    <path id="Path_2869" data-name="Path 2869" d="M60.59,23.65l-28-20.46a1,1,0,0,0-1.18,0l-28,20.46a1,1,0,0,0-.41.81V60a1,1,0,0,0,1,1H9.36a1,1,0,0,0,1-1V29.86H53.64V60a1,1,0,0,0,1,1H60a1,1,0,0,0,1-1V24.46a1,1,0,0,0-.41-.81ZM59,59H55.64V28.86a1,1,0,0,0-1-1H9.36a1,1,0,0,0-1,1V59H5V25L32,5.24,59,25Z" fill="#87805e"/>
    <path id="Path_2870" data-name="Path 2870" d="M51.29,51.92H46.44V45.84a1,1,0,0,0-1-1H41.11V38.76a1,1,0,0,0-1-1H33a1,1,0,0,0-1,1v6.08H27.19a1,1,0,0,0-1,1v6.08H21.86a1,1,0,0,0-1,1V60a1,1,0,0,0,1,1h7.08a1,1,0,0,0,1-1V53.92H32V60a1,1,0,0,0,1,1h7.08a1,1,0,0,0,1-1V53.92h2.1V60a1,1,0,0,0,1,1h7.08a1,1,0,0,0,1-1V52.92A1,1,0,0,0,51.29,51.92Zm-6.85,0H39.36V46.84h5.08Zm-9.17,0V46.84h2.09v5.08ZM34,39.76h5.08v5.08H34Zm-5.84,7.08h5.08v5.08H28.19ZM27.94,59H22.86V53.92h5.08Zm11.17,0H34V53.92h5.08Zm11.18,0H45.21V53.92h5.08Z" fill="#87805e"/>
  </g>
</svg>
