<svg xmlns="http://www.w3.org/2000/svg" width="512" height="512.002" viewBox="0 0 512 512.002">
  <g id="terrace" transform="translate(-0.001 -1.001)">
    <g id="Group_2562" data-name="Group 2562">
      <path id="Path_2867" data-name="Path 2867" d="M512,330.677V239.934H501.13a125.222,125.222,0,0,0-86.094,34.133h-150.5V137.533H481.413c14.427,0,18.9-19.52,5.911-25.805L259.715,1.849a8.537,8.537,0,0,0-7.42,0L24.686,111.724c-12.993,6.29-8.524,25.81,5.9,25.81H247.468V274.067H96.966a125.22,125.22,0,0,0-86.094-34.133H0v90.743a45.786,45.786,0,0,0,40.354,45.458L8.789,502.4a8.533,8.533,0,1,0,16.557,4.139L55.907,384.294,94.256,507.012a8.533,8.533,0,0,0,16.29-5.09l-39.2-125.455h65.193V365.6a125.5,125.5,0,0,0-6.611-40.329H204.8V359.4h25.6v68.267a68.262,68.262,0,0,1-68.267,68.267H145.066a8.533,8.533,0,1,0,0,17.066H366.933a8.533,8.533,0,1,0,0-17.066H349.866A68.262,68.262,0,0,1,281.6,427.667V359.4h25.6V325.267h74.877a125.527,125.527,0,0,0-6.611,40.329v10.871H432.8L401.319,502.4a8.533,8.533,0,1,0,16.557,4.139l30.561-122.242,38.349,122.718a8.533,8.533,0,0,0,16.29-5.09l-39.2-125.455h2.336A45.788,45.788,0,0,0,512,330.677Zm-256-311.668L466.17,120.467H45.833ZM59.773,359.4H45.791a28.721,28.721,0,0,1-28.723-28.723v-73.5A108.213,108.213,0,0,1,86.614,287.78l.871.867A108.692,108.692,0,0,1,109.467,320.3l2.122,4.614A108.067,108.067,0,0,1,119.3,359.4H59.773Zm230.361-17.067h-25.6v85.333a85.2,85.2,0,0,0,34.122,68.267H213.345a85.2,85.2,0,0,0,34.122-68.267V342.333h-25.6V325.266h68.267ZM307.2,308.2H122.689a125.7,125.7,0,0,0-10.59-17.067H399.9a125.641,125.641,0,0,0-10.59,17.067Zm93.213,16.712,2.121-4.613a108.711,108.711,0,0,1,21.982-31.652l.868-.864a108.215,108.215,0,0,1,69.549-30.61v73.5A28.721,28.721,0,0,1,466.211,359.4h-73.5A108.065,108.065,0,0,1,400.414,324.912Z" fill="#87805e"/>
    </g>
  </g>
</svg>
