<svg xmlns="http://www.w3.org/2000/svg" width="512.045" height="512.003" viewBox="0 0 512.045 512.003">
  <g id="toilet" transform="translate(0 -0.021)">
    <g id="Group_2563" data-name="Group 2563">
      <path id="Path_2868" data-name="Path 2868" d="M510.588,230.459a25.6,25.6,0,0,0-24.188-17.1H187.733a8.533,8.533,0,0,0-8.533,8.533v25.6H162.133V128.021h8.533a25.6,25.6,0,1,0,0-51.2h-8.533v-25.6h8.533a8.533,8.533,0,0,0,8.533-8.533V8.554A8.533,8.533,0,0,0,170.666.021H8.533A8.533,8.533,0,0,0,0,8.554V42.687A8.533,8.533,0,0,0,8.533,51.22h8.533v204.8a8.533,8.533,0,0,0,8.533,8.533h8.533c2.731,54.955,31.573,77.824,57.173,98.048,32.427,25.6,62.976,49.749,45.141,139.179a8.532,8.532,0,0,0,8.618,10.24H418.131a8.534,8.534,0,0,0,7.339-12.886c-24.4-40.619-24.4-73.643-24.4-123.648,52.395-17.067,90.2-60.843,93.867-112.384A25.6,25.6,0,0,0,510.588,230.459ZM170.667,93.887a8.533,8.533,0,1,1,0,17.066h-8.533V93.887ZM17.067,34.154V17.087H162.134V34.154ZM34.133,51.221H145.066V247.488H34.133ZM155.307,494.954c15.36-91.477-19.371-119.467-52.907-145.749-25-19.541-48.384-38.059-51.2-84.651H170.667c3.84,51.2,41.472,93.867,93.355,110.933,0,48.128,0,80.64-22.016,119.467Zm248.4,0H261.888c18.944-37.717,19.712-71.168,19.712-114.688a162.845,162.845,0,0,0,34.133,3.755h34.133A162.77,162.77,0,0,0,384,380.266C384,423.786,384.683,457.237,403.712,494.954Zm-53.845-128H315.734c-67.243,0-122.453-45.227-127.488-102.4H477.355C472.32,321.727,417.109,366.954,349.867,366.954ZM486.4,247.487H196.267V230.42H486.4a8.534,8.534,0,0,1,0,17.067Z" fill="#87805e"/>
    </g>
  </g>
</svg>
