<svg xmlns="http://www.w3.org/2000/svg" width="56" height="50" viewBox="0 0 56 50">
  <path id="windows" d="M57,51V10a3,3,0,0,0-3-3H10a3,3,0,0,0-3,3V51a3,3,0,0,0,0,6H57a3,3,0,1,0,0-6ZM9,10a1,1,0,0,1,1-1H54a1,1,0,0,1,1,1V51H53V12a1.025,1.025,0,0,0-.622-.924c-1.145-.163-39.6-.143-40.755,0A1.025,1.025,0,0,0,11,12V51H9Zm4,23h6.2V48.349L13,50.578Zm8.2,0H27V45.545L21.2,47.63ZM27,31H21.2V16.37L27,18.455Zm-7.8,0H13V13.422l6.2,2.229Zm9.138,16.189A1,1,0,0,0,29,46.248v-28.5a1,1,0,0,0-.662-.941L17.737,13H46.263l-10.6,3.811a1,1,0,0,0-.662.941v28.5a1,1,0,0,0,.662.941L46.263,51H17.737ZM51,31H44.8V15.651L51,13.422Zm-8.2,0H37V18.455l5.8-2.085ZM37,33h5.8V47.63L37,45.545Zm7.8,0H51V50.578l-6.2-2.229ZM57,55H7a1,1,0,1,1,0-2H57a1,1,0,1,1,0,2Z" transform="translate(-4 -7)" fill="#87805e"/>
</svg>
