<svg xmlns="http://www.w3.org/2000/svg" width="20" height="20" viewBox="0 0 20 20">
  <path id="remaining" d="M17,20H3a3,3,0,0,1-3-3V3A3,3,0,0,1,3,0H17a3,3,0,0,1,3,3V17A3,3,0,0,1,17,20ZM5.7,10.587v2.685A1.544,1.544,0,0,0,7.234,14.81h5.531a1.544,1.544,0,0,0,1.54-1.54V10.587l.111.1a.613.613,0,1,0,.829-.9l-4.83-4.433a.615.615,0,0,0-.83,0L4.755,9.784a.613.613,0,0,0,.829.9l.11-.1Zm7.07,3H7.234a.313.313,0,0,1-.312-.312V9.461L10,6.636l3.078,2.825v3.81A.313.313,0,0,1,12.766,13.583Z" fill="#fff"/>
</svg>
