<?xml version="1.0" encoding="UTF-8"?>
<svg xmlns="http://www.w3.org/2000/svg" xmlns:xlink="http://www.w3.org/1999/xlink" version="1.1" id="Layer_1" x="0px" y="0px" viewBox="0 0 512 512" style="enable-background:new 0 0 512 512;" xml:space="preserve" width="512" height="512">
<g>
	<path d="M256,289.88c64.62,0,117.19-52.57,117.19-117.19S320.62,55.5,256,55.5s-117.19,52.57-117.19,117.19   S191.38,289.88,256,289.88z M256,72.5c55.25,0,100.19,44.95,100.19,100.19S311.25,272.88,256,272.88s-100.19-44.95-100.19-100.19   S200.75,72.5,256,72.5z"/>
	<path d="M215,231.61c14.51,0,26.31-11.8,26.31-26.31c0-4.16-0.97-8.09-2.7-11.59l40.43-40.43l11.21,11.1   c5.11,4.69,10.36,1.62,12.02-0.05c3.3-3.33,3.28-8.72-0.05-12.02l-11.15-11.05l3.21-3.21l13.53,13.48   c2.18,2.17,7.54,4.47,12.02-0.02c3.32-3.32,3.3-8.71-0.02-12.02l-13.51-13.46l0.91-0.91c3.32-3.32,3.32-8.7,0-12.02   c-3.32-3.32-8.7-3.32-12.02,0l-68.59,68.59c-3.5-1.72-7.43-2.7-11.59-2.7c-14.51,0-26.31,11.8-26.31,26.31S200.5,231.61,215,231.61   z M215,195.99c5.13,0,9.31,4.18,9.31,9.31s-4.18,9.31-9.31,9.31s-9.31-4.18-9.31-9.31S209.87,195.99,215,195.99z"/>
	<path d="M455.71,367.85c-3.08-12.72-14.56-19.53-29.96-17.75c-0.06,0.01-0.12,0.01-0.18,0.02l-118.72,16.26   c2.36-10.03,0.69-20.17,0.69-20.17c-0.69-17.07-11.17-25.26-24.97-25.46l-126.31-10.26c-0.23-0.02-0.46-0.03-0.69-0.03   c-9.76,0-46.87,8.28-64.03,26.48h-10.7c-13.98,0-25.35,11.42-25.35,25.46v53.62c0,14.04,11.37,25.5,25.35,25.46   c29.51-0.07,167.67,14.99,184.85,15c38.81,0.03,157.98-49.69,164.63-52.54C460.29,392.57,457.47,375.1,455.71,367.85z    M424.08,388.14c-0.11,0.04-0.21,0.08-0.32,0.13c-1.14,0.49-114.89,48.07-154.09,51.15C246.86,441.21,111,424.71,80.85,424.5   c-4.6-0.03-8.35-3.8-8.35-8.46v-53.62c0-4.67,3.75-8.46,8.35-8.46h14.62c2.67,0,5.19-1.26,6.79-3.39   c10.71-14.24,44.99-22.87,53.02-23.09c0,0,118.09,9.62,124.12,10.06c8.59,0.62,10.95,2.98,11.14,8.69c0,0,2.38,17.86-3.09,23.03   c-9.52,2.03-52.73,10.41-103.54,7.04c-4.69-0.31-8.73,3.23-9.04,7.92c-0.31,4.68,3.23,8.73,7.92,9.04   c8.87,0.59,17.49,0.84,25.75,0.84c45.49,0,79.99-7.62,84.38-8.64l134.87-18.47c9.95-1.12,11.04,3.39,11.41,4.88   C440.74,378.23,435.66,383.71,424.08,388.14z"/>
</g>
</svg>
