<svg id="Layer_1" enable-background="new 0 0 512 512" height="512" viewBox="0 0 512 512" width="512" xmlns="http://www.w3.org/2000/svg"><g><path d="m246.62 230.35h-58.14c-4.69 0-8.5 3.81-8.5 8.5v58.14c0 4.69 3.81 8.5 8.5 8.5h58.14c4.69 0 8.5-3.81 8.5-8.5v-58.14c0-4.69-3.81-8.5-8.5-8.5zm-8.5 29.07h-12.07v-12.07h12.07zm-29.07-12.07v12.07h-12.07v-12.07zm-12.07 29.07h12.07v12.07h-12.07zm29.07 12.07v-12.07h12.07v12.07z"/><path d="m453.4 265.42-152.51-125.5c-3.34-2.75-8.22-2.55-11.32.46l-30.3 29.42-36.31-29.88c-3.13-2.58-7.64-2.58-10.78-.02l-153.56 125.51c-3.63 2.97-4.17 8.33-1.2 11.96 1.68 2.06 4.12 3.12 6.59 3.12 1.89 0 3.8-.63 5.37-1.92l21.68-17.72v104.67c0 4.69 3.81 8.5 8.5 8.5s8.5-3.81 8.5-8.5v-117.6c0-.31-.02-.62-.05-.93l109.52-89.52 104.19 85.74c-.01.14-.02.28-.02.42v121.88c0 4.69 3.81 8.5 8.5 8.5s8.5-3.81 8.5-8.5v-108.32l25.96 21.36c3.63 2.98 8.98 2.46 11.96-1.16 2.98-3.63 2.46-8.98-1.16-11.96l-103-84.76 23.48-22.79 112.02 92.19v115.46c0 4.69 3.81 8.5 8.5 8.5s8.5-3.81 8.5-8.5v-101.48l17.62 14.5c1.58 1.3 3.5 1.94 5.4 1.94 2.45 0 4.89-1.06 6.57-3.1 3-3.63 2.48-8.98-1.15-11.97z"/></g></svg>