<?xml version="1.0" encoding="UTF-8"?>
<svg xmlns="http://www.w3.org/2000/svg" xmlns:xlink="http://www.w3.org/1999/xlink" version="1.1" id="Layer_1" x="0px" y="0px" viewBox="0 0 512 512" style="enable-background:new 0 0 512 512;" xml:space="preserve" width="512" height="512">
<g>
	<path d="M231.21,245.65h70.29c4.69,0,8.5-3.81,8.5-8.5v-70.76c0-4.69-3.81-8.5-8.5-8.5h-70.29c-4.69,0-8.5,3.81-8.5,8.5v70.76   C222.71,241.85,226.51,245.65,231.21,245.65z M274.85,174.89H293v18.38h-18.14V174.89z M274.85,210.27H293v18.38h-18.14V210.27z    M239.71,174.89h18.14v18.38h-18.14V174.89z M239.71,210.27h18.14v18.38h-18.14V210.27z"/>
	<path d="M455.71,367.85c-3.08-12.72-14.56-19.53-29.96-17.75c-0.06,0.01-0.12,0.01-0.18,0.02l-118.72,16.26   c2.36-10.03,0.69-20.17,0.69-20.17c-0.69-17.07-11.17-25.26-24.97-25.46l-126.31-10.26c-0.23-0.02-0.46-0.03-0.69-0.03   c-9.76,0-46.87,8.28-64.03,26.48h-10.7c-13.98,0-25.35,11.42-25.35,25.46v53.62c0,14.04,11.37,25.5,25.35,25.46   c29.51-0.07,167.67,14.99,184.85,15c38.81,0.03,157.98-49.69,164.63-52.54C460.29,392.57,457.47,375.1,455.71,367.85z    M424.08,388.14c-0.11,0.04-0.21,0.08-0.32,0.13c-1.14,0.49-114.89,48.07-154.09,51.15C246.86,441.21,111,424.71,80.85,424.5   c-4.6-0.03-8.35-3.8-8.35-8.46v-53.62c0-4.67,3.75-8.46,8.35-8.46h14.62c2.67,0,5.19-1.26,6.79-3.39   c10.71-14.24,44.99-22.87,53.02-23.09c0,0,118.09,9.62,124.12,10.06c8.59,0.62,10.95,2.98,11.14,8.69c0,0,2.38,17.86-3.09,23.03   c-9.52,2.03-52.73,10.41-103.54,7.04c-4.69-0.31-8.73,3.23-9.04,7.92c-0.31,4.68,3.23,8.73,7.92,9.04   c8.87,0.59,17.49,0.84,25.75,0.84c45.49,0,79.99-7.62,84.38-8.64l134.87-18.47c9.95-1.12,11.04,3.39,11.41,4.88   C440.74,378.23,435.66,383.71,424.08,388.14z"/>
	<path d="M166,183.91c2.62,0.12,5.17,0.15,7.45,0.14v82.86c0,12.67,10.26,22.97,22.88,22.97H340.1c12.61,0,22.88-10.31,22.88-22.97   v-82.85c2.26,0.02,4.79,0,7.39-0.12c14.06-0.61,22-3.37,25.96-8.83c4.93-6.79,1.07-14.29-1.25-16.04L273.67,57.48   c-3.15-2.64-7.74-2.64-10.89-0.01c0,0-121.61,101.1-122.42,102.07c-4.29,5.14-3.07,11.42-0.39,15.29   C143.87,180.45,151.9,183.25,166,183.91z M268.2,75.07l109.02,91.22c-5.64,0.82-13.57,0.91-22.1,0.47   c-3.2-0.17-8.98,1.67-9.14,8.48v91.67c0,3.29-2.64,5.97-5.88,5.97H196.33c-3.24,0-5.88-2.68-5.88-5.97v-91.67   c0.21-2.55-1.43-8.59-8.74-8.48c-1.66,0.02-17.32,0.31-22.95-0.6L268.2,75.07z"/>
</g>
</svg>
